<svg xmlns="http://www.w3.org/2000/svg" viewBox="0 0 360 200" fill="none" role="img" aria-label="Agente de IA e GenIA">
  <defs>
    <linearGradient id="ai-grad" x1="0%" y1="0%" x2="100%" y2="100%">
      <stop offset="0%" stop-color="#A855F7"/>
      <stop offset="100%" stop-color="#00C6FF"/>
    </linearGradient>
    <radialGradient id="ai-glow" cx="50%" cy="42%" r="50%">
      <stop offset="0%" stop-color="#A855F7" stop-opacity="0.35"/>
      <stop offset="100%" stop-color="#0A0F1E" stop-opacity="0"/>
    </radialGradient>
  </defs>
  <rect width="360" height="200" rx="12" fill="#0B1020"/>
  <rect width="360" height="200" rx="12" fill="url(#ai-glow)"/>
  <circle cx="180" cy="78" r="34" stroke="url(#ai-grad)" stroke-width="2" fill="rgba(168,85,247,0.12)"/>
  <circle cx="180" cy="78" r="10" fill="url(#ai-grad)"/>
  <circle cx="108" cy="58" r="6" fill="#00C6FF" opacity="0.85"/>
  <circle cx="252" cy="58" r="6" fill="#A855F7" opacity="0.85"/>
  <circle cx="92" cy="108" r="5" fill="#A855F7" opacity="0.7"/>
  <circle cx="268" cy="108" r="5" fill="#00C6FF" opacity="0.7"/>
  <circle cx="132" cy="128" r="4" fill="#00C6FF" opacity="0.55"/>
  <circle cx="228" cy="128" r="4" fill="#A855F7" opacity="0.55"/>
  <path d="M180 78 L108 58 M180 78 L252 58 M180 78 L92 108 M180 78 L268 108 M108 58 L132 128 M252 58 L228 128" stroke="url(#ai-grad)" stroke-width="1.2" opacity="0.55"/>
  <text x="180" y="168" text-anchor="middle" fill="#E8EAF0" font-family="Inter, sans-serif" font-size="13" font-weight="600">Agente de IA</text>
  <text x="180" y="186" text-anchor="middle" fill="#8892A4" font-family="Inter, sans-serif" font-size="11">GenIA À AutomaþÒo inteligente</text>
</svg>
